<svg xmlns="http://www.w3.org/2000/svg" xmlns:xlink="http://www.w3.org/1999/xlink" version="1.2" baseProfile="tiny" x="0px" y="0px" width="1098px" height="1171.202px" viewBox="0 0 1098 1171.202" xml:space="preserve"><style>.style0{fill:	#FFFFFF;}.style1{fill-opacity:	.5;}</style><g><path d="M474.565 544.545c-3.265-1.005-7.03-1.507-15.065-1.507v30.133h3.766c12.053 0 19.587-6.277 19.587-16.07 C482.853 551.3 479.8 546.8 474.6 544.545z" class="style0"/><path d="M465.502 740.357c-22.85 0-38.419 17.076-38.419 41.683c0 24.4 15.6 41.4 38.4 41.4 c22.6 0 38.167-17.074 38.167-41.432C503.669 757.4 488.1 740.4 465.5 740.357z" class="style0"/><polygon points="559.2,366.6 546.1,406.7 570.7,406.7" class="style0"/><path d="M335.458 550.572c-7.281-4.52-13.811-6.277-25.361-6.529v85.124c26.617-1.256 44.194-18.582 44.194-43.692 C354.291 570.9 347.3 557.9 335.5 550.572z" class="style0"/><path d="M549 0L0 195.2V976l549 195.201L1098 976V195.2L549 0z M381.659 305.545h93.66v43.44h-44.694v15.819h41.682 v45.199h-41.682v19.585h44.694v43.433l61.015-167.476h47.959l55.993 166.728V305.545h48.211l61.771 92.405v-92.405h48.211v167.484 h-48.965l-61.017-91.149v91.149H640.54h-0.254h-48.962l-9.039-27.622h-48.964l-8.538 27.622h-49.464h-0.003h-93.657V305.545z M546.629 665.421V501.858h48.964v167.485h-46.199h-2.765h-55.993L459.5 620.377v48.966h-48.965V501.858h54.991 c21.846 0 36.9 4 47.7 13.058c11.55 9.5 18.6 25.4 18.6 41.934c0 22.599-10.044 38.921-28.624 47 L546.629 665.421z M317.63 411.76c-1.507-0.754-3.013-1.256-4.771-1.757l-8.538-2.513l-4.269-1.003 c-29.128-8.287-42.185-23.354-42.185-48.966c0-31.889 24.356-55.241 57.752-55.241c17.578 0 31.6 4.3 52.2 16.1 l-19.084 38.418c-9.542-8.035-16.573-11.048-26.366-11.048c-7.532 0-12.554 3.515-12.554 8.787c0 5 4 7.8 14.8 10 c14.062 2.8 23.6 6.8 31.4 13.308c11.802 9.8 18.3 24.9 18.3 41.683c0 32.895-26.366 56.749-62.775 56.7 c-10.295 0-22.851-2.511-33.396-6.779c-7.785-3.014-13.561-6.026-24.358-13.31l19.085-40.677 c12.556 11.3 23.6 16.3 36.2 16.32c8.537 0 14.312-4.519 14.312-11.549C323.405 416.8 321.1 413.3 317.6 411.76z M311.604 868.92c-10.295 0-22.851-2.51-33.396-6.78c-7.785-3.012-13.561-6.026-24.358-13.308l19.085-40.678 c12.556 11.3 23.6 16.3 36.2 16.321c8.537 0 14.312-4.52 14.312-11.552c0-3.515-2.26-7.03-5.775-8.537 c-1.507-0.752-3.013-1.255-4.771-1.758l-8.538-2.51l-4.269-1.006c-29.128-8.285-42.185-23.352-42.185-48.964 c0-31.89 24.356-55.242 57.752-55.242c17.578 0 31.6 4.3 52.2 16.071l-19.084 38.418c-9.542-8.035-16.573-11.049-26.366-11.049 c-7.532 0-12.554 3.516-12.554 8.788c0 5 4 7.8 14.8 10.043c14.062 2.8 23.6 6.8 31.4 13.3 c11.802 9.8 18.3 24.9 18.3 41.684C374.379 845.1 348 868.9 311.6 868.92z M365.842 656.8 c-12.807 8.286-28.626 12.556-46.956 12.556h-57.754V501.858h62.776c44.443 0 77.8 35.4 77.8 82.6 C401.748 615.4 388.2 642.5 365.8 656.788z M465.502 868.92c-49.216 0-85.876-37.163-85.876-86.881 c0-49.969 36.66-87.132 85.876-87.132c48.965 0 85.6 37.2 85.6 87.132C551.127 831.8 514.5 868.9 465.5 868.92z M715.848 865.656h-48.965l-61.017-91.149v91.149h-48.212V698.173h48.212l61.77 92.404v-92.404h48.212V865.656z M728.672 560.9 c-12.554-13.812-21.594-18.833-34.651-18.833c-22.098 0-39.674 19.335-39.674 43.942c0 23.9 18.6 43.2 41.9 43.2 c12.053 0 20.59-4.018 32.391-15.317v47.458c-10.043 8.287-20.338 11.299-37.413 11.299c-50.221 0-84.371-35.404-84.371-87.382 c0-50.723 33.146-86.63 80.101-86.63c16.071 0 28.1 3.5 41.7 12.053V560.868z M831.372 669.343l-41.433-57.503v57.503 h-48.965V501.858h48.965v50.472l36.159-50.472h61.269l-60.767 78.344l67.796 89.142H831.372z" class="style0"/></g><g><path d="M348.767 356.769c-9.542-8.035-16.573-11.048-26.366-11.048c-7.532 0-12.554 3.515-12.554 8.8 c0 5 4 7.8 14.8 10.045c14.062 2.8 23.6 6.8 31.4 13.308c11.802 9.8 18.3 24.9 18.3 41.7 c0 32.895-26.366 56.749-62.775 56.749c-10.295 0-22.851-2.511-33.396-6.779c-7.785-3.014-13.561-6.026-24.358-13.31l19.085-40.677 c12.556 11.3 23.6 16.3 36.2 16.32c8.537 0 14.312-4.519 14.312-11.549c0-3.517-2.26-7.031-5.775-8.538 c-1.507-0.754-3.013-1.256-4.771-1.757l-8.538-2.513l-4.269-1.003c-29.128-8.287-42.185-23.354-42.185-48.966 c0-31.889 24.356-55.241 57.752-55.241c17.578 0 31.6 4.3 52.2 16.07L348.767 356.769z" class="style1"/><path d="M475.319 348.985h-44.694v15.819h41.682v45.199h-41.682v19.585h44.694v43.44h-93.66V305.545h93.66V348.985z" class="style1"/><path d="M640.54 473.029h-49.216l-9.039-27.622h-48.964l-8.538 27.622h-49.467l61.018-167.484h47.959L640.54 473.029z M559.184 366.562l-13.056 40.176h24.606L559.184 366.562z" class="style1"/><path d="M798.479 473.029h-48.965l-61.017-91.149v91.149h-48.211V305.545h48.211l61.771 92.405v-92.405h48.211V473.029z" class="style1"/><path d="M261.132 501.858h62.776c44.443 0 77.8 35.4 77.8 82.612c0 30.886-13.56 58.005-35.906 72.3 c-12.807 8.286-28.626 12.556-46.956 12.556h-57.754V501.858z M310.097 629.167c26.617-1.256 44.194-18.582 44.194-43.692 c0-14.562-7.031-27.62-18.833-34.902c-7.281-4.52-13.811-6.277-25.361-6.529V629.167z" class="style1"/><path d="M410.535 501.858h54.991c21.846 0 36.9 4 47.7 13.058c11.55 9.5 18.6 25.4 18.6 41.9 c0 22.599-10.044 38.921-28.624 46.956l46.201 65.538h-58.758L459.5 620.377v48.966h-48.965V501.858z M463.266 573.2 c12.053 0 19.587-6.277 19.587-16.07c0-5.776-3.014-10.296-8.287-12.556c-3.265-1.005-7.03-1.507-15.065-1.507v30.133H463.266z" class="style1"/><path d="M595.593 669.343h-48.964V501.858h48.964V669.343z" class="style1"/><path d="M728.672 560.868c-12.554-13.812-21.594-18.833-34.651-18.833c-22.098 0-39.674 19.335-39.674 43.9 c0 23.9 18.6 43.2 41.9 43.189c12.053 0 20.59-4.018 32.391-15.317v47.458c-10.043 8.287-20.338 11.299-37.413 11.3 c-50.221 0-84.371-35.404-84.371-87.382c0-50.723 33.146-86.63 80.101-86.63c16.071 0 28.1 3.5 41.7 12.053V560.868z" class="style1"/><path d="M826.601 580.202l67.796 89.142h-63.024l-41.433-57.503v57.503h-48.965V501.858h48.965v50.472l36.159-50.472h61.269 L826.601 580.202z" class="style1"/><path d="M348.767 749.397c-9.542-8.035-16.573-11.049-26.366-11.049c-7.532 0-12.554 3.516-12.554 8.8 c0 5 4 7.8 14.8 10.043c14.062 2.8 23.6 6.8 31.4 13.31c11.802 9.8 18.3 24.9 18.3 41.7 c0 32.895-26.366 56.748-62.775 56.748c-10.295 0-22.851-2.51-33.396-6.78c-7.785-3.012-13.561-6.026-24.358-13.308l19.085-40.678 c12.556 11.3 23.6 16.3 36.2 16.321c8.537 0 14.312-4.52 14.312-11.552c0-3.515-2.26-7.03-5.775-8.537 c-1.507-0.752-3.013-1.255-4.771-1.758l-8.538-2.51l-4.269-1.006c-29.128-8.285-42.185-23.352-42.185-48.964 c0-31.89 24.356-55.242 57.752-55.242c17.578 0 31.6 4.3 52.2 16.071L348.767 749.397z" class="style1"/><path d="M551.127 782.04c0 49.718-36.66 86.881-85.625 86.881c-49.216 0-85.876-37.163-85.876-86.881 c0-49.969 36.66-87.132 85.876-87.132C514.467 694.9 551.1 732.1 551.1 782.04z M427.083 782 c0 24.4 15.6 41.4 38.4 41.432c22.6 0 38.167-17.074 38.167-41.432c0-24.606-15.567-41.683-38.167-41.683 C442.652 740.4 427.1 757.4 427.1 782.04z" class="style1"/><path d="M715.848 865.656h-48.965l-61.017-91.149v91.149h-48.212V698.173h48.212l61.77 92.404v-92.404h48.212V865.656z" class="style1"/></g></svg>